<svg width="26" height="26" viewBox="0 0 26 26" fill="none" xmlns="http://www.w3.org/2000/svg">
<mask id="mask0_65_607" style="mask-type:alpha" maskUnits="userSpaceOnUse" x="0" y="0" width="26" height="26">
<rect width="26" height="26" fill="#D9D9D9"/>
</mask>
<g mask="url(#mask0_65_607)">
<path d="M7.49794 13.5417L13.3896 19.4333C13.4952 19.5389 13.5504 19.6632 13.5552 19.8063C13.5601 19.9493 13.5028 20.0805 13.3834 20.2C13.2639 20.3153 13.1361 20.374 13 20.376C12.8639 20.3781 12.7361 20.3194 12.6167 20.2L6.02918 13.6125C5.93474 13.518 5.86842 13.4215 5.83023 13.3229C5.79204 13.2243 5.77295 13.1167 5.77295 13C5.77295 12.8833 5.79204 12.7757 5.83023 12.6771C5.86842 12.5785 5.93474 12.4819 6.02918 12.3875L12.6167 5.79999C12.7181 5.69859 12.8413 5.64443 12.9865 5.63749C13.1316 5.63054 13.2639 5.68471 13.3834 5.79999C13.5028 5.91943 13.5625 6.04825 13.5625 6.18645C13.5625 6.32464 13.5028 6.45346 13.3834 6.5729L7.49794 12.4583H20.0417C20.1959 12.4583 20.3247 12.5101 20.4281 12.6135C20.5316 12.717 20.5834 12.8458 20.5834 13C20.5834 13.1542 20.5316 13.283 20.4281 13.3864C20.3247 13.4899 20.1959 13.5417 20.0417 13.5417H7.49794Z" fill="#1F1F1F"/>
</g>
</svg>
