<svg width="5" height="4" viewBox="0 0 5 4" fill="none" xmlns="http://www.w3.org/2000/svg">
<path d="M1.78834 3.37308L0.0830574 0.695775C0.059533 0.658841 0.0398089 0.615933 0.0238854 0.56705C0.00796179 0.518167 0 0.465791 0 0.409924C0 0.298174 0.0235827 0.201917 0.0707483 0.12115C0.117903 0.0403835 0.180064 0 0.257229 0H3.87312C3.95029 0 4.01245 0.0412581 4.0596 0.123775C4.10677 0.206291 4.13035 0.302558 4.13035 0.412575C4.13035 0.440091 4.10258 0.534617 4.04705 0.69615L2.34201 3.37308C2.3028 3.43463 2.26049 3.48207 2.21506 3.5154C2.16965 3.54873 2.11969 3.5654 2.06518 3.5654C2.01066 3.5654 1.9607 3.54873 1.91529 3.5154C1.86986 3.48207 1.82755 3.43463 1.78834 3.37308Z" fill="#1F1F1F"/>
</svg>
