<svg width="24" height="24" viewBox="0 0 24 24" fill="none" xmlns="http://www.w3.org/2000/svg">
<mask id="mask0_129_704" style="mask-type:alpha" maskUnits="userSpaceOnUse" x="0" y="0" width="24" height="24">
<rect width="24" height="24" fill="#D9D9D9"/>
</mask>
<g mask="url(#mask0_129_704)">
<path d="M5.3077 20.5C4.80257 20.5 4.375 20.325 4.025 19.975C3.675 19.625 3.5 19.1974 3.5 18.6923V5.3077C3.5 4.80257 3.675 4.375 4.025 4.025C4.375 3.675 4.80257 3.5 5.3077 3.5H18.6923C19.1974 3.5 19.625 3.675 19.975 4.025C20.325 4.375 20.5 4.80257 20.5 5.3077V18.6923C20.5 19.1974 20.325 19.625 19.975 19.975C19.625 20.325 19.1974 20.5 18.6923 20.5H5.3077ZM7.99998 16.75H13C13.2125 16.75 13.3906 16.6781 13.5344 16.5343C13.6781 16.3904 13.75 16.2122 13.75 15.9997C13.75 15.7871 13.6781 15.609 13.5344 15.4654C13.3906 15.3218 13.2125 15.25 13 15.25H7.99998C7.78748 15.25 7.60936 15.3219 7.46563 15.4657C7.32188 15.6095 7.25 15.7877 7.25 16.0003C7.25 16.2129 7.32188 16.391 7.46563 16.5346C7.60936 16.6782 7.78748 16.75 7.99998 16.75ZM7.99998 12.75H16C16.2125 12.75 16.3906 12.6781 16.5344 12.5343C16.6781 12.3904 16.75 12.2122 16.75 11.9997C16.75 11.7871 16.6781 11.609 16.5344 11.4654C16.3906 11.3218 16.2125 11.25 16 11.25H7.99998C7.78748 11.25 7.60936 11.3219 7.46563 11.4657C7.32188 11.6095 7.25 11.7877 7.25 12.0003C7.25 12.2129 7.32188 12.391 7.46563 12.5346C7.60936 12.6782 7.78748 12.75 7.99998 12.75ZM7.99998 8.74995H16C16.2125 8.74995 16.3906 8.67805 16.5344 8.53425C16.6781 8.39043 16.75 8.21223 16.75 7.99965C16.75 7.78705 16.6781 7.60896 16.5344 7.46538C16.3906 7.32179 16.2125 7.25 16 7.25H7.99998C7.78748 7.25 7.60936 7.3219 7.46563 7.4657C7.32188 7.60952 7.25 7.78772 7.25 8.0003C7.25 8.2129 7.32188 8.39099 7.46563 8.53458C7.60936 8.67816 7.78748 8.74995 7.99998 8.74995Z" fill="#454746"/>
</g>
</svg>
