<svg width="24" height="24" viewBox="0 0 24 24" fill="none" xmlns="http://www.w3.org/2000/svg">
<mask id="mask0_425_1754" style="mask-type:alpha" maskUnits="userSpaceOnUse" x="0" y="0" width="24" height="24">
<rect width="24" height="24" fill="#D9D9D9"/>
</mask>
<g mask="url(#mask0_425_1754)">
<path d="M13.2923 11.9999L9.0461 7.7538C8.95252 7.66022 8.90252 7.54547 8.8961 7.40957C8.88968 7.27367 8.93968 7.15252 9.0461 7.0461C9.15252 6.93968 9.27047 6.88647 9.39995 6.88647C9.52943 6.88647 9.64738 6.93968 9.7538 7.0461L14.1423 11.4346C14.2294 11.5217 14.2907 11.6108 14.3259 11.7019C14.3612 11.7929 14.3788 11.8923 14.3788 11.9999C14.3788 12.1076 14.3612 12.207 14.3259 12.298C14.2907 12.3891 14.2294 12.4782 14.1423 12.5653L9.7538 16.9538C9.66022 17.0474 9.54547 17.0974 9.40957 17.1038C9.27367 17.1102 9.15252 17.0602 9.0461 16.9538C8.93968 16.8474 8.88647 16.7294 8.88647 16.5999C8.88647 16.4705 8.93968 16.3525 9.0461 16.2461L13.2923 11.9999Z" fill="#454746"/>
</g>
</svg>
