<svg width="26" height="26" viewBox="0 0 26 26" fill="none" xmlns="http://www.w3.org/2000/svg">
<mask id="mask0_256_1269" style="mask-type:alpha" maskUnits="userSpaceOnUse" x="0" y="0" width="26" height="26">
<rect width="26" height="26" fill="#D9D9D9"/>
</mask>
<g mask="url(#mask0_256_1269)">
<path d="M13 13.7667L7.31668 19.45C7.2153 19.5514 7.09099 19.6056 6.94377 19.6125C6.79654 19.6195 6.66529 19.5653 6.55 19.45C6.43472 19.3347 6.37708 19.2069 6.37708 19.0667C6.37708 18.9264 6.43472 18.7986 6.55 18.6833L12.2333 13L6.55 7.31668C6.44862 7.2153 6.39445 7.09099 6.3875 6.94377C6.38055 6.79654 6.43472 6.66529 6.55 6.55C6.66529 6.43472 6.79307 6.37708 6.93334 6.37708C7.07361 6.37708 7.20139 6.43472 7.31668 6.55L13 12.2333L18.6833 6.55C18.7847 6.44862 18.909 6.39445 19.0562 6.3875C19.2035 6.38055 19.3347 6.43472 19.45 6.55C19.5653 6.66529 19.6229 6.79307 19.6229 6.93334C19.6229 7.07361 19.5653 7.20139 19.45 7.31668L13.7667 13L19.45 18.6833C19.5514 18.7847 19.6056 18.909 19.6125 19.0562C19.6195 19.2035 19.5653 19.3347 19.45 19.45C19.3347 19.5653 19.2069 19.6229 19.0667 19.6229C18.9264 19.6229 18.7986 19.5653 18.6833 19.45L13 13.7667Z" fill="#1F1F1F"/>
</g>
</svg>
