<svg width="26" height="26" viewBox="0 0 26 26" fill="none" xmlns="http://www.w3.org/2000/svg">
<mask id="mask0_12_359" style="mask-type:alpha" maskUnits="userSpaceOnUse" x="0" y="0" width="26" height="26">
<rect width="26" height="26" fill="#D9D9D9"/>
</mask>
<g mask="url(#mask0_12_359)">
<path d="M7.04175 17.375C7.98759 17.375 8.90738 17.4837 9.80113 17.7011C10.6949 17.9184 11.5806 18.2722 12.4584 18.7625V8.13336C11.6765 7.57502 10.8147 7.15627 9.87298 6.8771C8.93133 6.59794 7.98759 6.45836 7.04175 6.45836C6.39175 6.45836 5.82265 6.49724 5.33444 6.57501C4.84626 6.65279 4.30425 6.79724 3.70841 7.00834C3.54174 7.0639 3.42369 7.14376 3.35424 7.24792C3.2848 7.3521 3.25008 7.46669 3.25008 7.59169V17.3583C3.25008 17.5528 3.31952 17.6951 3.45841 17.7854C3.59731 17.8757 3.75008 17.8861 3.91674 17.8167C4.31257 17.6834 4.76986 17.5764 5.28862 17.4958C5.80737 17.4153 6.39175 17.375 7.04175 17.375ZM13.5417 18.7625C14.4195 18.2722 15.3053 17.9184 16.199 17.7011C17.0928 17.4837 18.0126 17.375 18.9584 17.375C19.6084 17.375 20.1928 17.4153 20.7115 17.4958C21.2303 17.5764 21.6876 17.6834 22.0834 17.8167C22.2501 17.8861 22.4029 17.8757 22.5418 17.7854C22.6806 17.6951 22.7501 17.5528 22.7501 17.3583V7.59169C22.7501 7.46669 22.7154 7.35558 22.6459 7.25835C22.5765 7.16112 22.4584 7.07778 22.2917 7.00834C21.6959 6.79724 21.1539 6.65279 20.6657 6.57501C20.1775 6.49724 19.6084 6.45836 18.9584 6.45836C18.0126 6.45836 17.0688 6.59794 16.1272 6.8771C15.1855 7.15627 14.3237 7.57502 13.5417 8.13336V18.7625ZM13.0001 19.9938C12.8306 19.9938 12.6747 19.9726 12.5324 19.9302C12.39 19.8879 12.2542 19.8334 12.1251 19.7667C11.3376 19.3375 10.5174 19.0122 9.66466 18.7906C8.81188 18.5691 7.93757 18.4584 7.04175 18.4584C6.47785 18.4584 5.92404 18.5056 5.38029 18.6C4.83653 18.6945 4.30702 18.8459 3.79175 19.0542C3.3987 19.2111 3.0296 19.1639 2.68445 18.9125C2.33931 18.6611 2.16675 18.3139 2.16675 17.8709V7.40002C2.16675 7.13195 2.23723 6.88333 2.37819 6.65417C2.51917 6.42501 2.71674 6.26529 2.97091 6.17501C3.60702 5.89445 4.26883 5.69097 4.95633 5.56458C5.64383 5.43819 6.33897 5.375 7.04175 5.375C8.10285 5.375 9.13793 5.52778 10.147 5.83333C11.156 6.13888 12.107 6.58333 13.0001 7.16667C13.8931 6.58333 14.8442 6.13888 15.8532 5.83333C16.8622 5.52778 17.8973 5.375 18.9584 5.375C19.6612 5.375 20.3563 5.43819 21.0438 5.56458C21.7313 5.69097 22.3931 5.89445 23.0293 6.17501C23.2834 6.26529 23.481 6.42501 23.622 6.65417C23.7629 6.88333 23.8334 7.13195 23.8334 7.40002V17.8709C23.8334 18.3139 23.647 18.6542 23.274 18.8917C22.9011 19.1292 22.5043 19.1695 22.0834 19.0125C21.582 18.8181 21.0699 18.6771 20.547 18.5896C20.024 18.5021 19.4945 18.4584 18.9584 18.4584C18.0626 18.4584 17.1883 18.5691 16.3355 18.7906C15.4827 19.0122 14.6626 19.3375 13.8751 19.7667C13.7459 19.8334 13.6102 19.8879 13.4678 19.9302C13.3254 19.9726 13.1695 19.9938 13.0001 19.9938Z" fill="#1F1F1F"/>
</g>
</svg>
