<svg width="26" height="26" viewBox="0 0 26 26" fill="none" xmlns="http://www.w3.org/2000/svg">
<mask id="mask0_129_928" style="mask-type:alpha" maskUnits="userSpaceOnUse" x="0" y="0" width="26" height="26">
<rect width="26" height="26" fill="#D9D9D9"/>
</mask>
<g mask="url(#mask0_129_928)">
<path d="M13.5416 18.7625C14.4194 18.2722 15.3052 17.9184 16.1989 17.7011C17.0927 17.4837 18.0125 17.375 18.9583 17.375C19.6083 17.375 20.1927 17.4153 20.7114 17.4958C21.2302 17.5764 21.6875 17.6834 22.0833 17.8167C22.25 17.8861 22.4027 17.8757 22.5416 17.7854C22.6805 17.6951 22.75 17.5528 22.75 17.3583V7.59169C22.75 7.46669 22.7152 7.35558 22.6458 7.25835C22.5764 7.16112 22.4583 7.07778 22.2916 7.00834C21.6958 6.79724 21.1538 6.65279 20.6656 6.57501C20.1774 6.49724 19.6083 6.45836 18.9583 6.45836C18.0125 6.45836 17.0687 6.59794 16.1271 6.8771C15.1854 7.15627 14.3236 7.57502 13.5416 8.13336V18.7625ZM13 19.9938C12.8305 19.9938 12.6746 19.9726 12.5323 19.9302C12.3899 19.8879 12.2541 19.8334 12.125 19.7667C11.3375 19.3375 10.5173 19.0122 9.66454 18.7906C8.81176 18.5691 7.93745 18.4584 7.04163 18.4584C6.47773 18.4584 5.92391 18.5056 5.38017 18.6C4.83641 18.6945 4.3069 18.8459 3.79163 19.0542C3.39857 19.2111 3.02947 19.1639 2.68432 18.9125C2.33919 18.6611 2.16663 18.3139 2.16663 17.8709V7.40002C2.16663 7.13195 2.23711 6.88333 2.37807 6.65417C2.51904 6.42501 2.71662 6.26529 2.97078 6.17501C3.61107 5.89862 4.27392 5.69619 4.95932 5.56773C5.64475 5.43924 6.33885 5.375 7.04163 5.375C8.10273 5.375 9.1378 5.52778 10.1468 5.83333C11.1559 6.13888 12.1069 6.58333 13 7.16667C13.893 6.58333 14.8441 6.13888 15.8531 5.83333C16.8621 5.52778 17.8972 5.375 18.9583 5.375C19.6611 5.375 20.3552 5.43924 21.0406 5.56773C21.726 5.69619 22.3888 5.89862 23.0291 6.17501C23.2833 6.26529 23.4809 6.42501 23.6219 6.65417C23.7628 6.88333 23.8333 7.13195 23.8333 7.40002V17.8709C23.8333 18.3139 23.6468 18.6542 23.2739 18.8917C22.901 19.1292 22.5041 19.1695 22.0833 19.0125C21.5819 18.8181 21.0698 18.6771 20.5468 18.5896C20.0239 18.5021 19.4944 18.4584 18.9583 18.4584C18.0625 18.4584 17.1882 18.5691 16.3354 18.7906C15.4826 19.0122 14.6625 19.3375 13.875 19.7667C13.7458 19.8334 13.61 19.8879 13.4677 19.9302C13.3253 19.9726 13.1694 19.9938 13 19.9938Z" fill="#10416E"/>
</g>
</svg>
