<svg width="26" height="26" viewBox="0 0 26 26" fill="none" xmlns="http://www.w3.org/2000/svg">
<mask id="mask0_12_347" style="mask-type:alpha" maskUnits="userSpaceOnUse" x="0" y="0" width="26" height="26">
<rect width="26" height="26" fill="#D9D9D9"/>
</mask>
<g mask="url(#mask0_12_347)">
<path d="M15.4974 9.75004C15.2477 9.75004 15.0399 9.66706 14.8739 9.50109C14.7079 9.33511 14.6249 9.12299 14.6249 8.86474V5.21867C14.6249 4.96041 14.7094 4.74829 14.8783 4.58232C15.0472 4.41636 15.2565 4.33337 15.5062 4.33337H20.7941C21.0438 4.33337 21.2517 4.41636 21.4176 4.58232C21.5836 4.74829 21.6666 4.96041 21.6666 5.21867V8.86474C21.6666 9.12299 21.5821 9.33511 21.4132 9.50109C21.2443 9.66706 21.035 9.75004 20.7853 9.75004H15.4974ZM5.20571 13C4.95601 13 4.74817 12.917 4.5822 12.7509C4.41624 12.5847 4.33325 12.3789 4.33325 12.1333V5.19963C4.33325 4.95406 4.41771 4.74829 4.58662 4.58232C4.75554 4.41636 4.96486 4.33337 5.21457 4.33337H10.5025C10.7521 4.33337 10.96 4.41643 11.126 4.58254C11.2919 4.74867 11.3749 4.95451 11.3749 5.20007V12.1338C11.3749 12.3794 11.2905 12.5851 11.1216 12.7511C10.9526 12.9171 10.7433 13 10.4936 13H5.20571ZM15.4974 21.6667C15.2477 21.6667 15.0399 21.5837 14.8739 21.4175C14.7079 21.2514 14.6249 21.0456 14.6249 20.8V13.8663C14.6249 13.6207 14.7094 13.415 14.8783 13.249C15.0472 13.083 15.2565 13 15.5062 13H20.7941C21.0438 13 21.2517 13.0831 21.4176 13.2492C21.5836 13.4153 21.6666 13.6212 21.6666 13.8667V20.8004C21.6666 21.046 21.5821 21.2518 21.4132 21.4178C21.2443 21.5837 21.035 21.6667 20.7853 21.6667H15.4974ZM5.20571 21.6667C4.95601 21.6667 4.74817 21.5837 4.5822 21.4178C4.41624 21.2518 4.33325 21.0397 4.33325 20.7814V17.1353C4.33325 16.8771 4.41771 16.665 4.58662 16.499C4.75554 16.333 4.96486 16.25 5.21457 16.25H10.5025C10.7521 16.25 10.96 16.333 11.126 16.499C11.2919 16.665 11.3749 16.8771 11.3749 17.1353V20.7814C11.3749 21.0397 11.2905 21.2518 11.1216 21.4178C10.9526 21.5837 10.7433 21.6667 10.4936 21.6667H5.20571Z" fill="#10416E"/>
</g>
</svg>
