<svg width="34" height="35" viewBox="0 0 34 35" fill="none" xmlns="http://www.w3.org/2000/svg">
<mask id="mask0_457_693" style="mask-type:alpha" maskUnits="userSpaceOnUse" x="5" y="5" width="24" height="25">
<rect x="5" y="5.5" width="24" height="24" fill="#D9D9D9"/>
</mask>
<g mask="url(#mask0_457_693)">
<path d="M12.6154 25.5C12.1711 25.5 11.7909 25.3418 11.4745 25.0254C11.1582 24.7091 11 24.3288 11 23.8846V11.5H10.5C10.3583 11.5 10.2396 11.452 10.1437 11.356C10.0479 11.26 10 11.1411 10 10.9993C10 10.8574 10.0479 10.7387 10.1437 10.6432C10.2396 10.5477 10.3583 10.5 10.5 10.5H14C14 10.2935 14.0766 10.1137 14.2298 9.96054C14.383 9.80732 14.5628 9.73071 14.7692 9.73071H19.2308C19.4372 9.73071 19.617 9.80732 19.7702 9.96054C19.9234 10.1137 20 10.2935 20 10.5H23.5C23.6417 10.5 23.7604 10.5479 23.8562 10.6439C23.9521 10.7399 24 10.8588 24 11.0006C24 11.1425 23.9521 11.2612 23.8562 11.3567C23.7604 11.4522 23.6417 11.5 23.5 11.5H23V23.8846C23 24.3288 22.8418 24.7091 22.5255 25.0254C22.2091 25.3418 21.8289 25.5 21.3846 25.5H12.6154ZM22 11.5H12V23.8846C12 24.0641 12.0577 24.2115 12.1731 24.3269C12.2885 24.4423 12.4359 24.5 12.6154 24.5H21.3846C21.5641 24.5 21.7115 24.4423 21.8269 24.3269C21.9423 24.2115 22 24.0641 22 23.8846V11.5ZM15.3084 22.5C15.4502 22.5 15.5689 22.452 15.6644 22.3562C15.7599 22.2604 15.8077 22.1416 15.8077 22V14C15.8077 13.8583 15.7597 13.7395 15.6637 13.6437C15.5678 13.5479 15.4489 13.5 15.307 13.5C15.1652 13.5 15.0465 13.5479 14.951 13.6437C14.8554 13.7395 14.8077 13.8583 14.8077 14V22C14.8077 22.1416 14.8557 22.2604 14.9516 22.3562C15.0476 22.452 15.1665 22.5 15.3084 22.5ZM18.693 22.5C18.8348 22.5 18.9535 22.452 19.049 22.3562C19.1446 22.2604 19.1923 22.1416 19.1923 22V14C19.1923 13.8583 19.1443 13.7395 19.0484 13.6437C18.9524 13.5479 18.8335 13.5 18.6916 13.5C18.5498 13.5 18.4311 13.5479 18.3356 13.6437C18.2401 13.7395 18.1923 13.8583 18.1923 14V22C18.1923 22.1416 18.2403 22.2604 18.3363 22.3562C18.4322 22.452 18.5511 22.5 18.693 22.5Z" fill="#1F1F1F"/>
</g>
</svg>
