<svg width="30" height="30" viewBox="0 0 30 30" fill="none" xmlns="http://www.w3.org/2000/svg">
<mask id="mask0_154_695" style="mask-type:alpha" maskUnits="userSpaceOnUse" x="0" y="0" width="30" height="30">
<rect width="30" height="30" fill="#D9D9D9"/>
</mask>
<g mask="url(#mask0_154_695)">
<path d="M15 19.4688C14.8333 19.4688 14.6771 19.4427 14.5312 19.3906C14.3854 19.3385 14.25 19.25 14.125 19.125L9.625 14.625C9.375 14.375 9.25521 14.0833 9.26562 13.75C9.27604 13.4167 9.39583 13.125 9.625 12.875C9.875 12.625 10.1719 12.4948 10.5156 12.4844C10.8594 12.474 11.1562 12.5938 11.4062 12.8438L13.75 15.1875V6.25C13.75 5.89583 13.8698 5.59896 14.1094 5.35938C14.349 5.11979 14.6458 5 15 5C15.3542 5 15.651 5.11979 15.8906 5.35938C16.1302 5.59896 16.25 5.89583 16.25 6.25V15.1875L18.5938 12.8438C18.8438 12.5938 19.1406 12.474 19.4844 12.4844C19.8281 12.4948 20.125 12.625 20.375 12.875C20.6042 13.125 20.724 13.4167 20.7344 13.75C20.7448 14.0833 20.625 14.375 20.375 14.625L15.875 19.125C15.75 19.25 15.6146 19.3385 15.4688 19.3906C15.3229 19.4427 15.1667 19.4688 15 19.4688ZM7.5 25C6.8125 25 6.22396 24.7552 5.73438 24.2656C5.24479 23.776 5 23.1875 5 22.5V20C5 19.6458 5.11979 19.349 5.35938 19.1094C5.59896 18.8698 5.89583 18.75 6.25 18.75C6.60417 18.75 6.90104 18.8698 7.14062 19.1094C7.38021 19.349 7.5 19.6458 7.5 20V22.5H22.5V20C22.5 19.6458 22.6198 19.349 22.8594 19.1094C23.099 18.8698 23.3958 18.75 23.75 18.75C24.1042 18.75 24.401 18.8698 24.6406 19.1094C24.8802 19.349 25 19.6458 25 20V22.5C25 23.1875 24.7552 23.776 24.2656 24.2656C23.776 24.7552 23.1875 25 22.5 25H7.5Z" fill="#D4EAFF"/>
</g>
</svg>
