<svg width="34" height="35" viewBox="0 0 34 35" fill="none" xmlns="http://www.w3.org/2000/svg">
<mask id="mask0_457_689" style="mask-type:alpha" maskUnits="userSpaceOnUse" x="5" y="5" width="24" height="25">
<rect x="5" y="5.5" width="24" height="24" fill="#D9D9D9"/>
</mask>
<g mask="url(#mask0_457_689)">
<path d="M10 24.5H11.0981L21.7962 13.8019L20.6981 12.7038L10 23.4019V24.5ZM9.80768 25.5C9.57884 25.5 9.38702 25.4226 9.2322 25.2678C9.0774 25.113 9 24.9212 9 24.6923V23.6519C9 23.4308 9.04359 23.2201 9.13078 23.0198C9.21794 22.8194 9.33397 22.6468 9.47885 22.5019L22.1808 9.78652C22.2832 9.69517 22.3963 9.62458 22.5201 9.57475C22.6439 9.52492 22.7729 9.5 22.9072 9.5C23.0416 9.5 23.1717 9.52115 23.2977 9.56345C23.4236 9.60577 23.5398 9.68205 23.6462 9.7923L24.7135 10.8654C24.8237 10.9718 24.899 11.0885 24.9394 11.2156C24.9798 11.3426 25 11.4697 25 11.5967C25 11.7322 24.9772 11.8619 24.9315 11.9857C24.8858 12.1095 24.8131 12.2226 24.7135 12.325L11.9981 25.0212C11.8532 25.166 11.6806 25.2821 11.4802 25.3692C11.2799 25.4564 11.0692 25.5 10.8481 25.5H9.80768ZM21.2375 13.2625L20.6981 12.7038L21.7962 13.8019L21.2375 13.2625Z" fill="#1F1F1F"/>
</g>
</svg>
