<svg width="26" height="26" viewBox="0 0 26 26" fill="none" xmlns="http://www.w3.org/2000/svg">
<mask id="mask0_31_763" style="mask-type:alpha" maskUnits="userSpaceOnUse" x="0" y="0" width="26" height="26">
<rect width="26" height="26" fill="#D9D9D9"/>
</mask>
<g mask="url(#mask0_31_763)">
<path d="M9.75 15.4375C9.37083 15.4375 9.05035 15.3066 8.78854 15.0448C8.52674 14.783 8.39583 14.4625 8.39583 14.0833C8.39583 13.7042 8.52674 13.3837 8.78854 13.1219C9.05035 12.8601 9.37083 12.7292 9.75 12.7292C10.1292 12.7292 10.4497 12.8601 10.7115 13.1219C10.9733 13.3837 11.1042 13.7042 11.1042 14.0833C11.1042 14.4625 10.9733 14.783 10.7115 15.0448C10.4497 15.3066 10.1292 15.4375 9.75 15.4375ZM16.25 15.4375C15.8708 15.4375 15.5503 15.3066 15.2885 15.0448C15.0267 14.783 14.8958 14.4625 14.8958 14.0833C14.8958 13.7042 15.0267 13.3837 15.2885 13.1219C15.5503 12.8601 15.8708 12.7292 16.25 12.7292C16.6292 12.7292 16.9497 12.8601 17.2115 13.1219C17.4733 13.3837 17.6042 13.7042 17.6042 14.0833C17.6042 14.4625 17.4733 14.783 17.2115 15.0448C16.9497 15.3066 16.6292 15.4375 16.25 15.4375ZM13 21.6667C15.4194 21.6667 17.4688 20.8271 19.1479 19.1479C20.8271 17.4688 21.6667 15.4194 21.6667 13C21.6667 12.5667 21.6396 12.1469 21.5854 11.7406C21.5313 11.3344 21.4319 10.9417 21.2875 10.5625C20.9083 10.6528 20.5292 10.7205 20.15 10.7656C19.7708 10.8108 19.3736 10.8333 18.9583 10.8333C17.3153 10.8333 15.7625 10.4813 14.3 9.77708C12.8375 9.07292 11.5917 8.08889 10.5625 6.825C9.98472 8.23333 9.15868 9.4566 8.08438 10.4948C7.01007 11.533 5.75972 12.3139 4.33333 12.8375V13C4.33333 15.4194 5.17292 17.4688 6.85208 19.1479C8.53125 20.8271 10.5806 21.6667 13 21.6667ZM13.0036 22.75C11.6554 22.75 10.3878 22.4942 9.20086 21.9825C8.01394 21.4708 6.98148 20.7764 6.10347 19.8992C5.22549 19.022 4.53041 17.9905 4.01825 16.8047C3.50608 15.6189 3.25 14.3519 3.25 13.0036C3.25 11.6554 3.50584 10.3878 4.01751 9.20086C4.52921 8.01394 5.22364 6.98148 6.10082 6.10347C6.97799 5.22549 8.00948 4.53041 9.19528 4.01825C10.3811 3.50608 11.6481 3.25 12.9964 3.25C14.3446 3.25 15.6122 3.50584 16.7991 4.01751C17.9861 4.52921 19.0185 5.22364 19.8965 6.10082C20.7745 6.97799 21.4696 8.00948 21.9818 9.19528C22.4939 10.3811 22.75 11.6481 22.75 12.9964C22.75 14.3446 22.4942 15.6122 21.9825 16.7991C21.4708 17.9861 20.7764 19.0185 19.8992 19.8965C19.022 20.7745 17.9905 21.4696 16.8047 21.9818C15.6189 22.4939 14.3519 22.75 13.0036 22.75Z" fill="#10416E"/>
</g>
</svg>
