<svg width="26" height="26" viewBox="0 0 26 26" fill="none" xmlns="http://www.w3.org/2000/svg">
<path d="M3.57146 3.05851C4.08604 1.94629 5.27409 1.21323 6.49465 1.21504C12.4458 1.20781 18.3969 1.21684 24.348 1.21143C24.3516 5.27934 24.3498 9.34545 24.348 13.4116C22.5912 13.4134 20.8326 13.408 19.0758 13.4152C17.6476 15.367 16.1562 17.2736 14.7424 19.2345C14.3687 20.3413 14.849 21.5853 14.412 22.6921C14.0365 23.6906 13.1427 24.4688 12.1027 24.6981C10.7196 25.052 9.16687 24.3352 8.51146 23.0731C8.08715 22.3184 8.09979 21.4246 8.09618 20.585C8.11423 19.2742 8.04201 17.9598 8.20271 16.6543C7.42632 16.6471 6.64271 16.7175 5.87354 16.5893C4.56812 16.3528 3.45048 15.2298 3.31326 13.8973C3.2284 13.5109 3.34215 13.0089 2.95215 12.7652C2.23534 12.2036 1.7009 11.3875 1.64854 10.4595C1.58173 9.26059 1.51132 8.03281 1.74604 6.84656C1.91937 5.99073 2.61993 5.43643 3.19409 4.84601C3.31687 4.25018 3.27715 3.6092 3.57146 3.05851ZM5.32465 3.34018C4.86604 3.8042 4.81007 4.51018 4.85521 5.12587L4.9184 5.23781L4.87326 5.37323C4.85701 5.61337 4.83896 5.85351 4.8209 6.09365C3.65632 6.09365 3.06229 7.34851 3.2284 8.37587L3.28798 8.48781L3.25007 8.62504C3.24465 8.86518 3.23923 9.10531 3.23021 9.34726C3.26993 9.76615 3.2609 10.1905 3.32409 10.6057C3.47937 11.3027 4.17451 11.7775 4.87146 11.7866C4.85701 12.0574 4.84257 12.33 4.82993 12.6009C4.86243 13.1931 4.80826 13.8521 5.18021 14.3577C5.50882 14.8325 6.10284 15.0618 6.66798 15.0384C8.17201 15.042 9.67784 15.0257 11.1819 15.0528C10.8984 15.2659 10.7124 15.5728 10.5192 15.8653L10.4813 15.8725C9.36187 17.1274 9.80784 18.8824 9.76993 20.4027C9.80243 21.1953 9.58937 22.1757 10.2917 22.7499C11.1295 23.5516 12.7094 23.0839 12.9333 21.9356C13.0542 20.9389 12.9008 19.9296 13.0055 18.933C13.1499 18.5249 13.4641 18.2089 13.7115 17.8623C15.2317 15.8418 16.752 13.8196 18.2596 11.7902C19.7474 11.7775 21.2352 11.783 22.7212 11.7866C22.8133 10.8675 22.7465 9.9449 22.7266 9.02587C22.7302 6.9567 22.8042 4.88934 22.723 2.82379C19.3051 2.82559 15.8853 2.83101 12.4674 2.82198C12.0124 2.82559 11.5574 2.82559 11.1024 2.82379C9.62729 2.83462 8.15215 2.81837 6.67521 2.8274C6.18229 2.81476 5.66771 2.97004 5.32465 3.34018Z" fill="#10416E"/>
<path d="M5.32404 3.34061C5.66709 2.97047 6.18167 2.81519 6.67459 2.82783C8.15154 2.8188 9.62667 2.83505 11.1018 2.82422C11.4395 3.13839 11.8656 3.40741 12.0497 3.84977C12.187 4.312 12.1851 4.8013 12.2285 5.27977C9.79098 5.26352 7.35348 5.34116 4.91779 5.23825L4.85459 5.1263C4.80945 4.51061 4.86542 3.80464 5.32404 3.34061Z" fill="#FFC83D"/>
<path d="M12.4674 2.82227C15.8854 2.83129 19.3051 2.82588 22.723 2.82407C22.8043 4.88963 22.7302 6.95699 22.7266 9.02615C22.7465 9.94518 22.8133 10.8678 22.7212 11.7868C21.2352 11.7832 19.7474 11.7778 18.2597 11.7905C16.752 13.8199 15.2318 15.8421 13.7115 17.8625C13.4641 18.2092 13.1499 18.5252 13.0055 18.9332C12.9008 19.9299 13.0543 20.9392 12.9333 21.9359C12.7094 23.0842 11.1295 23.5518 10.2918 22.7502C9.58939 22.176 9.80245 21.1956 9.76995 20.403C9.80786 18.8827 9.36189 17.1277 10.4813 15.8728L10.5193 15.8656C11.7524 15.7934 12.9712 14.8671 12.9604 13.5563C13.0055 10.6638 12.9477 7.77129 12.9856 4.87879C13.0254 4.15296 12.787 3.46143 12.4674 2.82227Z" fill="#FFC83D"/>
<path d="M3.22816 8.37606C3.06205 7.3487 3.65608 6.09384 4.82066 6.09384C7.27261 6.06134 9.72636 6.09022 12.1801 6.08481C12.1837 6.90092 12.1837 7.71884 12.1801 8.53495C9.21538 8.50967 6.24886 8.60175 3.28774 8.488L3.22816 8.37606Z" fill="#FFC83D"/>
<path d="M3.23022 9.34716C6.213 9.31466 9.19578 9.33632 12.1804 9.33452C12.184 10.1506 12.184 10.9649 12.1786 11.781C9.74286 11.7847 7.30717 11.7883 4.87147 11.7865C4.17453 11.7774 3.47939 11.3026 3.32411 10.6056C3.26092 10.1904 3.26995 9.76604 3.23022 9.34716Z" fill="#FFC83D"/>
<path d="M4.82983 12.6011C7.29442 12.574 9.759 12.5884 12.2236 12.592C12.1658 13.1752 12.1857 13.7837 11.9636 14.3362C11.7884 14.6486 11.4725 14.8544 11.1818 15.053C9.67775 15.0259 8.17192 15.0422 6.66789 15.0386C6.10275 15.062 5.50872 14.8327 5.18011 14.3579C4.80817 13.8523 4.86233 13.1933 4.82983 12.6011Z" fill="#FFC83D"/>
<path d="M11.1024 2.82407C11.5574 2.82588 12.0124 2.82588 12.4674 2.82227C12.787 3.46143 13.0254 4.15296 12.9856 4.87879C12.9477 7.77129 13.0055 10.6638 12.9604 13.5563C12.9712 14.8671 11.7524 15.7934 10.5193 15.8656C10.7124 15.5731 10.8984 15.2662 11.1819 15.0531C11.4726 14.8545 11.7886 14.6487 11.9637 14.3363C12.1858 13.7838 12.1659 13.1753 12.2237 12.5921C9.75911 12.5885 7.29453 12.5741 4.82995 12.6012C4.84259 12.3303 4.85703 12.0577 4.87147 11.7868C7.30717 11.7887 9.74286 11.785 12.1786 11.7814C12.184 10.9653 12.184 10.151 12.1804 9.3349C9.19578 9.33671 6.213 9.31504 3.23022 9.34754C3.23925 9.1056 3.24467 8.86546 3.25009 8.62532L3.288 8.4881C6.24911 8.60185 9.21564 8.50977 12.1804 8.53504C12.184 7.71893 12.184 6.90102 12.1804 6.0849C9.72661 6.09032 7.27286 6.06143 4.82092 6.09393C4.83897 5.85379 4.85703 5.61365 4.87328 5.37352L4.91842 5.2381C7.35411 5.34102 9.79161 5.26338 12.2291 5.27963C12.1858 4.80115 12.1876 4.31185 12.0504 3.84963C11.8662 3.40727 11.4401 3.13824 11.1024 2.82407Z" fill="#D48B00"/>
</svg>
