<svg width="26" height="26" viewBox="0 0 26 26" fill="none" xmlns="http://www.w3.org/2000/svg">
<mask id="mask0_266_2313" style="mask-type:alpha" maskUnits="userSpaceOnUse" x="0" y="0" width="26" height="26">
<rect width="26" height="26" fill="#D9D9D9"/>
</mask>
<g mask="url(#mask0_266_2313)">
<path d="M4.99999 20.5837C4.50139 20.5837 4.08507 20.4166 3.75104 20.0826C3.41701 19.7486 3.25 19.3323 3.25 18.8337V7.16698C3.25 6.66838 3.41701 6.25206 3.75104 5.91803C4.08507 5.58401 4.50139 5.41699 4.99999 5.41699H10.3958L12.5625 7.58366H21C21.4986 7.58366 21.9149 7.75067 22.249 8.0847C22.583 8.41873 22.75 8.83504 22.75 9.33365V18.8337C22.75 19.3323 22.583 19.7486 22.249 20.0826C21.9149 20.4166 21.4986 20.5837 21 20.5837H4.99999ZM13 17.417C14.025 17.417 14.8924 17.0621 15.6021 16.3524C16.3118 15.6427 16.6667 14.7753 16.6667 13.7503C16.6667 12.7253 16.3118 11.858 15.6021 11.1482C14.8924 10.4385 14.025 10.0837 13 10.0837C11.975 10.0837 11.1076 10.4385 10.3979 11.1482C9.68819 11.858 9.33332 12.7253 9.33332 13.7503C9.33332 14.7753 9.68819 15.6427 10.3979 16.3524C11.1076 17.0621 11.975 17.417 13 17.417ZM11.4625 11.5337C11.6889 11.3739 11.9292 11.2521 12.1833 11.168C12.4375 11.084 12.7097 11.042 13 11.042C13.7583 11.042 14.3993 11.3038 14.9229 11.8274C15.4465 12.351 15.7083 12.992 15.7083 13.7503C15.7083 14.0406 15.6663 14.3128 15.5823 14.567C15.4983 14.8212 15.3764 15.0614 15.2167 15.2878L11.4625 11.5337ZM13 16.4587C12.2417 16.4587 11.6007 16.1968 11.0771 15.6732C10.5535 15.1496 10.2917 14.5087 10.2917 13.7503C10.2917 13.46 10.3337 13.1878 10.4177 12.9337C10.5017 12.6795 10.6236 12.4392 10.7833 12.2128L14.5375 15.967C14.3111 16.1267 14.0708 16.2486 13.8167 16.3326C13.5625 16.4166 13.2903 16.4587 13 16.4587Z" fill="#1F1F1F"/>
</g>
</svg>
