<svg width="26" height="26" viewBox="0 0 26 26" fill="none" xmlns="http://www.w3.org/2000/svg">
<mask id="mask0_161_724" style="mask-type:alpha" maskUnits="userSpaceOnUse" x="0" y="0" width="26" height="26">
<rect width="26" height="26" fill="#D9D9D9"/>
</mask>
<g mask="url(#mask0_161_724)">
<path d="M4.99999 20.5832C4.50139 20.5832 4.08507 20.4162 3.75104 20.0821C3.41701 19.7481 3.25 19.3318 3.25 18.8332V7.16649C3.25 6.66789 3.41701 6.25157 3.75104 5.91755C4.08507 5.58352 4.50139 5.4165 4.99999 5.4165H9.66875C9.90208 5.4165 10.1288 5.46373 10.3489 5.55818C10.5691 5.65261 10.7576 5.7783 10.9146 5.93526L12.5625 7.58317H21C21.4986 7.58317 21.9149 7.75018 22.249 8.08421C22.583 8.41824 22.75 8.83456 22.75 9.33316V18.8332C22.75 19.3318 22.583 19.7481 22.249 20.0821C21.9149 20.4162 21.4986 20.5832 21 20.5832H4.99999ZM4.99999 19.4998H21C21.1945 19.4998 21.3542 19.4373 21.4792 19.3123C21.6042 19.1873 21.6667 19.0276 21.6667 18.8332V9.33316C21.6667 9.13872 21.6042 8.979 21.4792 8.854C21.3542 8.729 21.1945 8.6665 21 8.6665H12.1271L10.1479 6.68733C10.0785 6.61789 10.0055 6.56928 9.92916 6.54149C9.85278 6.51372 9.77292 6.49984 9.68958 6.49984H4.99999C4.80555 6.49984 4.64583 6.56234 4.52083 6.68733C4.39583 6.81233 4.33333 6.97205 4.33333 7.16649V18.8332C4.33333 19.0276 4.39583 19.1873 4.52083 19.3123C4.64583 19.4373 4.80555 19.4998 4.99999 19.4998ZM13 17.4165C14.025 17.4165 14.8924 17.0616 15.6021 16.3519C16.3118 15.6422 16.6667 14.7748 16.6667 13.7498C16.6667 12.7248 16.3118 11.8575 15.6021 11.1477C14.8924 10.438 14.025 10.0832 13 10.0832C11.975 10.0832 11.1076 10.438 10.3979 11.1477C9.68819 11.8575 9.33332 12.7248 9.33332 13.7498C9.33332 14.7748 9.68819 15.6422 10.3979 16.3519C11.1076 17.0616 11.975 17.4165 13 17.4165ZM11.4625 11.5332C11.6889 11.3734 11.9292 11.2516 12.1833 11.1675C12.4375 11.0835 12.7097 11.0415 13 11.0415C13.7583 11.0415 14.3993 11.3033 14.9229 11.8269C15.4465 12.3505 15.7083 12.9915 15.7083 13.7498C15.7083 14.0401 15.6663 14.3123 15.5823 14.5665C15.4983 14.8207 15.3764 15.061 15.2167 15.2874L11.4625 11.5332ZM13 16.4582C12.2417 16.4582 11.6007 16.1964 11.0771 15.6727C10.5535 15.1491 10.2917 14.5082 10.2917 13.7498C10.2917 13.4595 10.3337 13.1873 10.4177 12.9332C10.5017 12.679 10.6236 12.4387 10.7833 12.2123L14.5375 15.9665C14.3111 16.1262 14.0708 16.2481 13.8167 16.3321C13.5625 16.4162 13.2903 16.4582 13 16.4582Z" fill="#1F1F1F"/>
</g>
</svg>

