<svg width="26" height="26" viewBox="0 0 26 26" fill="none" xmlns="http://www.w3.org/2000/svg">
<mask id="mask0_10_219" style="mask-type:alpha" maskUnits="userSpaceOnUse" x="0" y="0" width="26" height="26">
<rect width="26" height="26" fill="#D9D9D9"/>
</mask>
<g mask="url(#mask0_10_219)">
<path d="M6.08324 21.6667C5.58464 21.6667 5.16832 21.4997 4.83429 21.1657C4.50027 20.8316 4.33325 20.4153 4.33325 19.9167V6.08336C4.33325 5.58476 4.50027 5.16844 4.83429 4.83442C5.16832 4.50039 5.58464 4.33337 6.08324 4.33337H12.4791C12.6333 4.33337 12.7621 4.38511 12.8655 4.48859C12.969 4.59205 13.0207 4.72086 13.0207 4.87504C13.0207 5.0292 12.969 5.15802 12.8655 5.26149C12.7621 5.36497 12.6333 5.41671 12.4791 5.41671H6.08324C5.91659 5.41671 5.76381 5.48615 5.62491 5.62503C5.48603 5.76393 5.41659 5.91671 5.41659 6.08336V19.9167C5.41659 20.0834 5.48603 20.2361 5.62491 20.375C5.76381 20.5139 5.91659 20.5834 6.08324 20.5834H12.4791C12.6333 20.5834 12.7621 20.6351 12.8655 20.7386C12.969 20.8421 13.0207 20.9709 13.0207 21.125C13.0207 21.2792 12.969 21.408 12.8655 21.5115C12.7621 21.615 12.6333 21.6667 12.4791 21.6667H6.08324ZM19.5645 13.5417H10.4999C10.3458 13.5417 10.2169 13.49 10.1135 13.3865C10.01 13.283 9.95824 13.1542 9.95824 13C9.95824 12.8459 10.01 12.717 10.1135 12.6136C10.2169 12.5101 10.3458 12.4584 10.4999 12.4584H19.5645L17.4291 10.323C17.3277 10.2216 17.2735 10.0993 17.2666 9.95628C17.2596 9.81323 17.3138 9.68198 17.4291 9.56254C17.5444 9.44309 17.6721 9.38232 17.8124 9.38025C17.9527 9.37815 18.0825 9.43683 18.202 9.55629L21.0333 12.3876C21.2083 12.5625 21.2958 12.7667 21.2958 13C21.2958 13.2334 21.2083 13.4375 21.0333 13.6125L18.202 16.4438C18.0965 16.5493 17.9711 16.6046 17.826 16.6094C17.6808 16.6143 17.5485 16.557 17.4291 16.4375C17.3138 16.3181 17.2572 16.1893 17.2593 16.0511C17.2614 15.9129 17.32 15.7861 17.4353 15.6709L19.5645 13.5417Z" fill="#1F1F1F"/>
</g>
</svg>
