<svg width="26" height="26" viewBox="0 0 26 26" fill="none" xmlns="http://www.w3.org/2000/svg">
<mask id="mask0_612_8615" style="mask-type:alpha" maskUnits="userSpaceOnUse" x="0" y="0" width="26" height="26">
<rect width="26" height="26" fill="#D9D9D9"/>
</mask>
<g mask="url(#mask0_612_8615)">
<path d="M21.5833 16.1249V10.3583L13.8417 14.5562C13.577 14.709 13.2977 14.7854 13.0036 14.7854C12.7095 14.7854 12.4278 14.709 12.1583 14.5562L4.75417 10.5104C4.59723 10.4159 4.4816 10.3046 4.40729 10.1765C4.33299 10.0484 4.29584 9.90602 4.29584 9.74942C4.29584 9.59283 4.33299 9.45064 4.40729 9.32286C4.4816 9.19508 4.59723 9.08397 4.75417 8.98952L12.1576 4.95464C12.289 4.88154 12.424 4.82671 12.5628 4.79017C12.7015 4.75362 12.8472 4.73535 13 4.73535C13.1528 4.73535 13.2985 4.75445 13.437 4.79263C13.5755 4.83084 13.7104 4.88813 13.8417 4.9645L22.2021 9.49368C22.3496 9.56808 22.4639 9.67597 22.545 9.81735C22.6261 9.95872 22.6667 10.1113 22.6667 10.2749V16.1249C22.6667 16.2784 22.6147 16.4071 22.5108 16.5109C22.4068 16.6147 22.278 16.6666 22.1243 16.6666C21.9706 16.6666 21.842 16.6147 21.7386 16.5109C21.6351 16.4071 21.5833 16.2784 21.5833 16.1249ZM12.1583 19.7854L7.40833 17.2145C7.13057 17.0576 6.90974 16.8406 6.74585 16.5635C6.58196 16.2864 6.50001 15.9874 6.50001 15.6666V12.2999L12.1583 15.3687C12.423 15.5215 12.7024 15.5979 12.9964 15.5979C13.2905 15.5979 13.5722 15.5215 13.8417 15.3687L19.5 12.2999V15.6704C19.5 15.9957 19.4181 16.2951 19.2542 16.5687C19.0903 16.8423 18.8695 17.0576 18.5917 17.2145L13.8417 19.7854C13.7088 19.8618 13.5722 19.9191 13.4319 19.9572C13.2916 19.9954 13.1477 20.0145 13 20.0145C12.8524 20.0145 12.7084 19.9954 12.5681 19.9572C12.4278 19.9191 12.2912 19.8618 12.1583 19.7854Z" fill="#10416E"/>
</g>
</svg>
