<svg width="26" height="26" viewBox="0 0 26 26" fill="none" xmlns="http://www.w3.org/2000/svg">
<mask id="mask0_612_8257" style="mask-type:alpha" maskUnits="userSpaceOnUse" x="0" y="0" width="26" height="26">
<rect width="26" height="26" fill="#D9D9D9"/>
</mask>
<g mask="url(#mask0_612_8257)">
<path d="M7.40823 17.2146C7.13046 17.0576 6.90963 16.8443 6.74574 16.5745C6.58185 16.3047 6.49991 16.0021 6.49991 15.6667V11.4667L4.77489 10.5104C4.61795 10.416 4.50129 10.3047 4.42489 10.1765C4.3485 10.0484 4.3103 9.90607 4.3103 9.74947C4.3103 9.59288 4.3485 9.45069 4.42489 9.32291C4.50129 9.19513 4.61795 9.08401 4.77489 8.98957L12.1636 4.95949C12.2947 4.88649 12.4302 4.83436 12.5699 4.80311C12.7095 4.77185 12.8529 4.75623 12.9999 4.75623C13.1469 4.75623 13.2903 4.77185 13.43 4.80311C13.5696 4.83436 13.7053 4.88632 13.8371 4.959L22.202 9.49372C22.3548 9.584 22.4704 9.69732 22.5489 9.83367C22.6274 9.97001 22.6666 10.1171 22.6666 10.275V16.125C22.6666 16.2785 22.6146 16.4071 22.5107 16.5109C22.4067 16.6148 22.2779 16.6667 22.1242 16.6667C21.9705 16.6667 21.8419 16.6148 21.7385 16.5109C21.635 16.4071 21.5832 16.2785 21.5832 16.125V10.3583L19.4999 11.4667V15.6667C19.4999 16.0021 19.418 16.3047 19.2541 16.5745C19.0902 16.8443 18.8694 17.0576 18.5916 17.2146L13.8416 19.7854C13.7068 19.8618 13.5696 19.9156 13.43 19.9469C13.2903 19.9781 13.1469 19.9937 12.9999 19.9937C12.8529 19.9937 12.7095 19.9781 12.5699 19.9469C12.4302 19.9156 12.293 19.8618 12.1582 19.7854L7.40823 17.2146ZM12.7499 13.6333C12.8471 13.6889 12.9339 13.7167 13.0103 13.7167C13.0867 13.7167 13.1735 13.6889 13.2707 13.6333L20.3999 9.74999L13.2707 5.8875C13.1735 5.83194 13.0867 5.80416 13.0103 5.80416C12.9339 5.80416 12.8471 5.83194 12.7499 5.8875L5.5999 9.74999L12.7499 13.6333ZM12.7291 18.8688C12.8263 18.9243 12.9166 18.9521 12.9999 18.9521C13.0832 18.9521 13.1735 18.9243 13.2707 18.8688L18.1041 16.2562C18.2152 16.1868 18.295 16.1069 18.3437 16.0167C18.3923 15.9264 18.4166 15.8118 18.4166 15.6729V12.0625L13.8478 14.5562C13.7131 14.6326 13.5763 14.6865 13.4374 14.7177C13.2985 14.7489 13.1527 14.7646 12.9999 14.7646C12.8471 14.7646 12.7013 14.7489 12.5624 14.7177C12.4235 14.6865 12.2867 14.6326 12.152 14.5562L7.58324 12.0625V15.6729C7.58324 15.784 7.60754 15.8917 7.65615 15.9958C7.70477 16.1 7.78463 16.1868 7.89573 16.2562L12.7291 18.8688Z" fill="#1F1F1F"/>
</g>
</svg>
