<svg width="24" height="24" viewBox="0 0 24 24" fill="none" xmlns="http://www.w3.org/2000/svg">
<mask id="mask0_5_94" style="mask-type:alpha" maskUnits="userSpaceOnUse" x="0" y="0" width="24" height="24">
<rect width="24" height="24" fill="#D9D9D9"/>
</mask>
<g mask="url(#mask0_5_94)">
<path d="M9.53839 15.2307C7.93968 15.2307 6.58487 14.6753 5.47397 13.5644C4.36307 12.4535 3.80762 11.0987 3.80762 9.49994C3.80762 7.90122 4.36307 6.54641 5.47397 5.43551C6.58487 4.32461 7.93968 3.76917 9.53839 3.76917C11.1371 3.76917 12.4919 4.32461 13.6028 5.43551C14.7137 6.54641 15.2692 7.90122 15.2692 9.49994C15.2692 10.1948 15.1461 10.8672 14.8999 11.5172C14.6538 12.1672 14.3307 12.723 13.9307 13.1846L19.8384 19.0922C19.932 19.1858 19.982 19.3006 19.9884 19.4365C19.9948 19.5724 19.9448 19.6935 19.8384 19.7999C19.732 19.9064 19.6141 19.9596 19.4846 19.9596C19.3551 19.9596 19.2371 19.9064 19.1307 19.7999L13.223 13.8923C12.723 14.3179 12.148 14.6474 11.498 14.8807C10.848 15.114 10.1948 15.2307 9.53839 15.2307ZM9.53839 14.2307C10.8653 14.2307 11.9855 13.774 12.899 12.8605C13.8124 11.947 14.2692 10.8269 14.2692 9.49994C14.2692 8.17302 13.8124 7.05283 12.899 6.13937C11.9855 5.2259 10.8653 4.76917 9.53839 4.76917C8.21148 4.76917 7.09128 5.2259 6.17782 6.13937C5.26437 7.05283 4.80764 8.17302 4.80764 9.49994C4.80764 10.8269 5.26437 11.947 6.17782 12.8605C7.09128 13.774 8.21148 14.2307 9.53839 14.2307Z" fill="#454746"/>
</g>
</svg>
