<svg width="26" height="26" viewBox="0 0 26 26" fill="none" xmlns="http://www.w3.org/2000/svg">
<mask id="mask0_12_365" style="mask-type:alpha" maskUnits="userSpaceOnUse" x="0" y="0" width="26" height="26">
<rect width="26" height="26" fill="#D9D9D9"/>
</mask>
<g mask="url(#mask0_12_365)">
<path d="M11.7395 22.75C11.5242 22.75 11.3381 22.6771 11.1812 22.5312C11.0242 22.3854 10.9277 22.2049 10.8916 21.9896L10.5874 19.6167C10.2416 19.5125 9.86763 19.3486 9.46555 19.125C9.06347 18.9014 8.72145 18.6618 8.4395 18.4063L6.27075 19.3396C6.05964 19.434 5.852 19.4441 5.64783 19.3698C5.44367 19.2955 5.28326 19.1618 5.16658 18.9688L3.91241 16.7875C3.80964 16.5944 3.77839 16.3903 3.81867 16.175C3.85894 15.9597 3.96658 15.7847 4.14159 15.65L6.027 14.2312C5.99505 14.0354 5.96867 13.8337 5.94783 13.626C5.92699 13.4184 5.91658 13.2167 5.91658 13.0208C5.91658 12.8389 5.92699 12.6476 5.94783 12.4469C5.96867 12.2462 5.99505 12.0202 6.027 11.7688L4.14159 10.35C3.96658 10.2153 3.85546 10.0403 3.80825 9.82499C3.76103 9.60972 3.79575 9.40555 3.91241 9.2125L5.16658 7.07292C5.28326 6.87985 5.44021 6.74617 5.63743 6.67187C5.83465 6.59755 6.03881 6.60762 6.24992 6.70207L8.41867 7.61459C8.74228 7.34514 9.09228 7.10209 9.46866 6.88542C9.84505 6.66876 10.211 6.50139 10.5666 6.38333L10.8916 4.01042C10.9277 3.79514 11.0242 3.61459 11.1812 3.46875C11.3381 3.32292 11.5242 3.25 11.7395 3.25H14.2395C14.4548 3.25 14.6444 3.32292 14.8083 3.46875C14.9721 3.61459 15.0721 3.79514 15.1083 4.01042L15.4124 6.40415C15.8277 6.54999 16.1947 6.71735 16.5135 6.90625C16.8322 7.09513 17.1604 7.33124 17.4978 7.61459L19.7499 6.70207C19.961 6.60762 20.1652 6.59408 20.3624 6.66144C20.5596 6.72881 20.7166 6.85902 20.8333 7.05207L22.0874 9.2125C22.2041 9.40555 22.2388 9.60972 22.1916 9.82499C22.1444 10.0403 22.0333 10.2153 21.8583 10.35L19.8895 11.8312C19.9492 12.0549 19.9826 12.2601 19.9895 12.4469C19.9965 12.6337 19.9999 12.8181 19.9999 13C19.9999 13.1681 19.993 13.3455 19.9791 13.5323C19.9652 13.7191 19.9333 13.9451 19.8833 14.2104L21.8103 15.65C21.9853 15.7847 22.0965 15.9597 22.1437 16.175C22.1909 16.3903 22.1562 16.5944 22.0395 16.7875L20.7854 18.9625C20.6687 19.1556 20.5072 19.2868 20.301 19.3563C20.0947 19.4257 19.886 19.4132 19.6749 19.3188L17.4978 18.3854C17.1604 18.6688 16.8208 18.9118 16.4791 19.1146C16.1374 19.3174 15.7819 19.4778 15.4124 19.5958L15.1083 21.9896C15.0721 22.2049 14.9721 22.3854 14.8083 22.5312C14.6444 22.6771 14.4548 22.75 14.2395 22.75H11.7395ZM11.9166 21.6667H14.0353L14.4353 18.7333C14.9812 18.5889 15.4725 18.3906 15.9093 18.1385C16.3461 17.8865 16.7909 17.541 17.2437 17.1021L19.9458 18.2542L21.0228 16.4125L18.652 14.6313C18.7423 14.3229 18.802 14.0392 18.8312 13.7802C18.8603 13.5212 18.8749 13.2611 18.8749 13C18.8749 12.725 18.8603 12.4649 18.8312 12.2198C18.802 11.9746 18.7423 11.7049 18.652 11.4104L21.0645 9.5875L19.9874 7.74583L17.2228 8.90416C16.8951 8.54444 16.4642 8.20729 15.9301 7.89271C15.3961 7.57812 14.8909 7.36945 14.4145 7.26667L14.0833 4.33333H11.9228L11.5853 7.24582C11.0395 7.3625 10.5378 7.55035 10.0801 7.80937C9.62249 8.0684 9.16728 8.4243 8.7145 8.87708L6.01242 7.74583L4.93535 9.5875L7.28534 11.3417C7.19506 11.5847 7.13187 11.8486 7.09576 12.1333C7.05965 12.4181 7.04159 12.7139 7.04159 13.0208C7.04159 13.2958 7.05965 13.5688 7.09576 13.8396C7.13187 14.1104 7.18812 14.3743 7.26451 14.6313L4.93535 16.4125L6.01242 18.2542L8.69367 17.1167C9.11867 17.5458 9.55999 17.8899 10.0176 18.1489C10.4753 18.408 10.9909 18.6097 11.5645 18.7542L11.9166 21.6667ZM12.9708 15.7083C13.7263 15.7083 14.3666 15.4458 14.8916 14.9208C15.4166 14.3958 15.6791 13.7556 15.6791 13C15.6791 12.2444 15.4166 11.6042 14.8916 11.0792C14.3666 10.5542 13.7263 10.2917 12.9708 10.2917C12.211 10.2917 11.5697 10.5542 11.0468 11.0792C10.5239 11.6042 10.2624 12.2444 10.2624 13C10.2624 13.7556 10.5239 14.3958 11.0468 14.9208C11.5697 15.4458 12.211 15.7083 12.9708 15.7083Z" fill="#1F1F1F"/>
</g>
</svg>
