<svg width="24" height="24" viewBox="0 0 24 24" fill="none" xmlns="http://www.w3.org/2000/svg">
<mask id="mask0_612_8627" style="mask-type:alpha" maskUnits="userSpaceOnUse" x="0" y="0" width="24" height="24">
<rect width="24" height="24" fill="#D9D9D9"/>
</mask>
<g mask="url(#mask0_612_8627)">
<path d="M12 17.6884L8.1096 20.0345C7.96474 20.1191 7.81955 20.1547 7.67405 20.1412C7.52854 20.1278 7.3968 20.0787 7.27885 19.9941C7.16092 19.9095 7.0699 19.7989 7.0058 19.6624C6.94169 19.5259 6.93143 19.3749 6.97503 19.2095L8.0077 14.7922L4.5731 11.8192C4.4449 11.7076 4.36318 11.5785 4.32793 11.4317C4.29268 11.2849 4.30197 11.1423 4.3558 11.0038C4.40965 10.8653 4.48722 10.7522 4.5885 10.6644C4.68979 10.5766 4.82825 10.5192 5.00388 10.4923L9.53655 10.0961L11.2962 5.92499C11.3603 5.76987 11.4574 5.65513 11.5875 5.58076C11.7176 5.50641 11.8551 5.46924 12 5.46924C12.1448 5.46924 12.2823 5.50641 12.4125 5.58076C12.5426 5.65513 12.6397 5.76987 12.7038 5.92499L14.4634 10.0961L18.9961 10.4923C19.1717 10.5192 19.3102 10.5766 19.4115 10.6644C19.5127 10.7522 19.5903 10.8653 19.6442 11.0038C19.698 11.1423 19.7073 11.2849 19.672 11.4317C19.6368 11.5785 19.5551 11.7076 19.4269 11.8192L15.9923 14.7922L17.0249 19.2095C17.0685 19.3749 17.0583 19.5259 16.9942 19.6624C16.9301 19.7989 16.839 19.9095 16.7211 19.9941C16.6032 20.0787 16.4714 20.1278 16.3259 20.1412C16.1804 20.1547 16.0352 20.1191 15.8904 20.0345L12 17.6884Z" fill="#454746"/>
</g>
</svg>
