<svg width="20" height="20" viewBox="0 0 20 20" fill="none" xmlns="http://www.w3.org/2000/svg">
<circle cx="10" cy="10" r="10" fill="#FF4141"/>
<path d="M9.392 11.496L9.154 5H11.408L11.17 11.496H9.392ZM10.288 14.87C9.90533 14.87 9.59267 14.758 9.35 14.534C9.11667 14.3007 9 14.0207 9 13.694C9 13.358 9.11667 13.078 9.35 12.854C9.59267 12.6207 9.90533 12.504 10.288 12.504C10.6613 12.504 10.9647 12.6207 11.198 12.854C11.4313 13.078 11.548 13.358 11.548 13.694C11.548 14.0207 11.4313 14.3007 11.198 14.534C10.9647 14.758 10.6613 14.87 10.288 14.87Z" fill="white"/>
</svg>
