<svg width="26" height="26" viewBox="0 0 26 26" fill="none" xmlns="http://www.w3.org/2000/svg">
<path d="M11.536 3.43398C12.0145 1.88482 13.7803 0.89176 15.3512 1.30162C16.7342 1.59954 17.8519 2.90134 17.8446 4.33134C17.8392 5.99968 17.8952 7.66981 17.7995 9.33634C18.5488 9.34176 19.3053 9.28398 20.051 9.38509C21.3944 9.59093 22.568 10.7429 22.6944 12.1115C22.7666 12.5015 22.6384 13.0125 23.0573 13.2363C23.9601 13.8719 24.4367 14.9823 24.3519 16.0729C24.267 17.4361 24.6516 18.9708 23.7795 20.1552C23.4708 20.7113 22.6077 20.9226 22.7269 21.6737C22.7413 23.3727 21.1759 24.819 19.4985 24.7847C13.533 24.7883 7.56742 24.7901 1.60006 24.7829C1.60006 20.7186 1.59826 16.6561 1.60187 12.5918C3.37312 12.5809 5.14617 12.5936 6.91923 12.5845C8.38534 10.6075 9.86409 8.6394 11.3446 6.67134C11.3898 5.59523 11.2309 4.48482 11.536 3.43398ZM13.0112 4.33134C12.9245 5.29009 13.0003 6.25606 12.9696 7.21662C11.2219 9.54398 9.47228 11.8695 7.73353 14.2041C6.24756 14.2222 4.75978 14.2095 3.27381 14.2113C3.3027 17.1959 3.2052 20.1805 3.27381 23.1615C6.69534 23.1579 10.1169 23.1525 13.5384 23.1633C13.9952 23.1615 14.4538 23.1615 14.9124 23.1651C16.3858 23.147 17.8573 23.1669 19.3306 23.1597C19.8976 23.1813 20.4952 22.9538 20.822 22.4736C21.1741 21.9608 21.1759 21.3018 21.0983 20.7077H21.1542C21.1488 20.4405 21.1452 20.1715 21.1434 19.9043C22.3856 19.9205 23.0158 18.5284 22.7287 17.4505H22.7901C22.7738 17.1833 22.7558 16.9143 22.7395 16.647C22.7287 16.2191 22.7521 15.7858 22.6727 15.3633C22.4939 14.6862 21.8115 14.2204 21.1217 14.215C21.1235 13.9423 21.129 13.6715 21.1344 13.3988C21.1037 12.9547 21.129 12.5015 21.0315 12.0645C20.8256 11.4236 20.1828 10.9794 19.5184 10.9668C17.9602 10.9306 16.402 10.9884 14.8456 10.9325C15.1399 10.7302 15.2952 10.3908 15.4974 10.1073C15.7971 9.66856 16.2233 9.23884 16.2196 8.67009C16.2214 7.1769 16.3442 5.67829 16.2052 4.1869C16.1059 3.23537 14.9846 2.57093 14.0999 2.92662C13.4969 3.12162 13.0599 3.70301 13.0112 4.33134Z" fill="#10416E"/>
<path d="M13.0109 4.33163C13.0597 3.7033 13.4966 3.12191 14.0997 2.92691C14.9844 2.57121 16.1056 3.23566 16.2049 4.18719C16.344 5.67858 16.2212 7.17719 16.2194 8.67038C16.223 9.23913 15.7969 9.66885 15.4972 10.1076C14.8255 10.2304 14.1051 10.3983 13.6374 10.9382C13.0055 11.5719 12.9694 12.5162 12.9676 13.3558C12.9838 15.9468 12.9676 18.5377 12.973 21.1287C12.9459 21.8509 13.1969 22.537 13.5381 23.1636C10.1166 23.1527 6.69507 23.1582 3.27354 23.1618C3.20493 20.1808 3.30243 17.1962 3.27354 14.2116C4.75951 14.2098 6.24729 14.2225 7.73326 14.2044C9.47201 11.8698 11.2216 9.54427 12.9694 7.21691C13.0001 6.25635 12.9242 5.29038 13.0109 4.33163Z" fill="#FFC83D"/>
<path d="M14.0165 11.6711C14.17 11.3136 14.5437 11.1439 14.8453 10.9326C16.4017 10.9886 17.9598 10.9308 19.518 10.9669C20.1825 10.9796 20.8253 11.4237 21.0311 12.0647C21.1286 12.5016 21.1033 12.9548 21.134 13.399C18.6839 13.4243 16.2355 13.4098 13.7854 13.408C13.8269 12.8266 13.7944 12.22 14.0165 11.6711Z" fill="#FFC83D"/>
<path d="M13.8144 16.6493C13.7892 15.835 13.8054 15.0189 13.8361 14.2046C16.2646 14.2281 18.6931 14.201 21.1215 14.2154C21.8113 14.2208 22.4938 14.6867 22.6725 15.3638C22.7519 15.7863 22.7285 16.2196 22.7393 16.6475C19.7638 16.6674 16.7882 16.6638 13.8144 16.6493Z" fill="#FFC83D"/>
<path d="M13.8327 19.9171C13.802 19.0973 13.793 18.2776 13.8201 17.4597C16.7884 17.4507 19.7585 17.4669 22.7287 17.4507C23.0157 18.5286 22.3856 19.9207 21.1434 19.9044C18.7059 19.9261 16.2702 19.899 13.8327 19.9171Z" fill="#FFC83D"/>
<path d="M13.7837 20.717C16.2212 20.7044 18.6605 20.7225 21.098 20.708C21.1756 21.302 21.1738 21.9611 20.8217 22.4738C20.4949 22.9541 19.8973 23.1816 19.3304 23.16C17.857 23.1672 16.3855 23.1473 14.9122 23.1654C14.5619 22.8656 14.1322 22.6038 13.939 22.1651C13.7819 21.6993 13.8144 21.1991 13.7837 20.717Z" fill="#FFC83D"/>
<path d="M13.6374 10.938C14.105 10.3981 14.8254 10.2302 15.4971 10.1074C15.2949 10.3909 15.1396 10.7303 14.8453 10.9326C14.5438 11.1438 14.17 11.3135 14.0166 11.671C13.7945 12.2199 13.827 12.8266 13.7854 13.408C16.2356 13.4098 18.6839 13.4242 21.1341 13.3989C21.1286 13.6716 21.1232 13.9424 21.1214 14.2151C18.6929 14.2006 16.2645 14.2277 13.836 14.2042C13.8053 15.0185 13.7891 15.8346 13.8143 16.649C16.7881 16.6634 19.7636 16.667 22.7392 16.6471C22.7554 16.9144 22.7735 17.1834 22.7898 17.4506H22.7284C19.7582 17.4669 16.7881 17.4506 13.8198 17.4596C13.7927 18.2776 13.8017 19.0973 13.8324 19.917C16.2699 19.8989 18.7056 19.926 21.1431 19.9044C21.1449 20.1716 21.1485 20.4406 21.1539 20.7078H21.0979C18.6604 20.7223 16.2211 20.7042 13.7836 20.7169C13.8143 21.1989 13.7818 21.6991 13.9389 22.1649C14.1321 22.6037 14.5618 22.8655 14.9121 23.1652C14.4535 23.1616 13.9949 23.1616 13.5381 23.1634C13.1968 22.5369 12.9459 21.8508 12.9729 21.1285C12.9675 18.5376 12.9838 15.9466 12.9675 13.3556C12.9693 12.516 13.0054 11.5717 13.6374 10.938Z" fill="#D48C00"/>
</svg>
