<svg width="26" height="26" viewBox="0 0 26 26" fill="none" xmlns="http://www.w3.org/2000/svg">
<g clip-path="url(#clip0_113_841)">
<path d="M18.5069 1.90661C18.6839 1.67188 18.9078 1.9373 19.045 2.06369C20.2276 3.25536 21.4157 4.44161 22.6038 5.62786C21.2369 7.01091 19.8539 8.38133 18.4799 9.75716C19.4187 10.7195 20.3811 11.6584 21.3164 12.6226C21.4699 12.7598 21.6179 12.9566 21.8508 12.9367C23.2339 12.962 24.6169 12.9331 26 12.944V24.319C17.9888 24.3135 9.97569 24.328 1.96444 24.3117C1.01472 24.3316 0.2275 23.5516 0 22.6687V21.8851C0.157083 21.4012 0.47125 20.9985 0.807083 20.6248C0.8125 20.2781 0.814306 19.9315 0.816111 19.5848C1.29278 19.1081 1.76944 18.6315 2.2425 18.153C1.2675 16.7609 1.50764 14.7206 2.8275 13.6337C4.46694 12.0358 6.03958 10.3692 7.70611 8.80202C8.97903 7.69883 10.7575 8.19355 12.2814 8.0473C12.6696 7.81438 12.944 7.43522 13.2708 7.12827C15.0204 5.39133 16.7465 3.63091 18.5069 1.90661ZM17.0607 5.64049C15.7119 6.99466 14.3596 8.34702 13.0054 9.69577C11.9185 9.68674 10.8315 9.67952 9.74458 9.69216C9.30583 9.69397 8.87792 9.87813 8.57639 10.1995C7.01097 11.7613 5.45278 13.3322 3.88194 14.8922C3.51181 15.2424 3.2175 15.7155 3.26986 16.2463C3.22653 17.1166 4.04264 17.8154 4.875 17.8388C4.0625 18.6387 3.26806 19.4584 2.44653 20.2529C2.43931 20.6067 2.43208 20.9624 2.43569 21.3163C2.10528 21.681 1.35597 22.0909 1.77486 22.6579C2.34361 22.8438 2.63431 22.192 3.00806 21.8905C3.34569 21.8905 3.68333 21.8941 4.02097 21.8959C4.30986 21.6305 4.60056 21.3687 4.88944 21.1033C4.85694 21.9555 5.64958 22.721 6.49458 22.6849C12.4511 22.6958 18.4094 22.6831 24.366 22.6904C24.4508 20.363 24.2956 18.0356 24.3985 15.7083C24.4219 15.3237 24.3894 14.9391 24.3353 14.5581C23.2086 14.5798 22.0819 14.5708 20.9571 14.5635C19.6336 13.1877 18.2596 11.8624 16.9235 10.501C16.6797 10.2519 16.4071 10.0334 16.1326 9.81855C16.9867 8.96813 17.8407 8.11952 18.6875 7.26188C19.2111 6.75452 19.7113 6.22549 20.2439 5.72897C19.8846 5.03563 19.1876 4.57522 18.6532 4.0155C18.144 4.57883 17.5879 5.09522 17.0607 5.64049Z" fill="#10416E"/>
<path d="M17.0603 5.64063C17.5875 5.09535 18.1436 4.57896 18.6528 4.01562C19.1872 4.57535 19.8842 5.03576 20.2435 5.7291C19.7109 6.22563 19.2107 6.75465 18.6871 7.26201C18.1382 6.72938 17.5966 6.18771 17.0603 5.64063Z" fill="#CCCCCC"/>
<path d="M13.0055 9.6959C14.3597 8.34715 15.712 6.99479 17.0608 5.64062C17.597 6.18771 18.1387 6.72938 18.6876 7.26201C17.8408 8.11965 16.9867 8.96826 16.1327 9.81868C14.1267 11.8337 12.1136 13.8397 10.104 15.851C8.88702 17.0355 7.72605 18.2795 6.47661 19.4278C5.61355 19.5001 4.84439 20.2024 4.88952 21.1034C4.60064 21.3688 4.30994 21.6306 4.02105 21.896C3.68341 21.8942 3.34577 21.8906 3.00814 21.8906C2.8673 21.8906 2.58564 21.8888 2.4448 21.8888C2.443 21.7462 2.43939 21.4609 2.43577 21.3165C2.43216 20.9626 2.43939 20.6069 2.44661 20.253C3.26814 19.4585 4.06258 18.6388 4.87508 17.839C7.58341 15.1216 10.3008 12.4151 13.0055 9.6959Z" fill="#F03A17"/>
<path d="M8.57674 10.1997C8.87827 9.87832 9.30619 9.69415 9.74494 9.69234C10.8319 9.6797 11.9188 9.68693 13.0058 9.69595C10.301 12.4151 7.58369 15.1216 4.87535 17.839C4.04299 17.8155 3.22688 17.1168 3.27021 16.2465C3.21785 15.7157 3.51216 15.2426 3.8823 14.8923C5.45313 13.3323 7.01132 11.7615 8.57674 10.1997Z" fill="#FFC83D"/>
<path d="M10.1038 15.8512C12.1134 13.8398 14.1266 11.8338 16.1325 9.81885C16.407 10.0337 16.6796 10.2522 16.9234 10.5013C18.2595 11.8627 19.6335 13.188 20.957 14.5638C22.0818 14.5711 23.2085 14.5801 24.3352 14.5584C24.3893 14.9394 24.4218 15.324 24.3984 15.7086C24.2955 18.0359 24.4507 20.3633 24.3659 22.6907C18.4093 22.6834 12.451 22.6961 6.49448 22.6852C5.64948 22.7213 4.85684 21.9558 4.88934 21.1036C4.8442 20.2026 5.61337 19.5002 6.47643 19.428C7.74032 19.4262 9.00782 19.4984 10.2699 19.4027C11.9455 19.1879 13.1786 17.5105 12.9873 15.8476C12.0267 15.8494 11.0661 15.8494 10.1038 15.8512Z" fill="#FFC83D"/>
<path d="M6.47681 19.4276C7.72625 18.2793 8.88722 17.0352 10.1042 15.8508C11.0665 15.849 12.0271 15.849 12.9876 15.8472C13.179 17.5101 11.9458 19.1874 10.2703 19.4023C9.0082 19.498 7.7407 19.4258 6.47681 19.4276Z" fill="#D48C00"/>
<path d="M1.77517 22.6579C1.35628 22.091 2.10559 21.6811 2.436 21.3164C2.43962 21.4609 2.44323 21.7461 2.44503 21.8888C2.58587 21.8888 2.86753 21.8906 3.00837 21.8906C2.63462 22.1921 2.34392 22.8439 1.77517 22.6579Z" fill="#757575"/>
</g>
<defs>
<clipPath id="clip0_113_841">
<rect width="26" height="26" fill="white"/>
</clipPath>
</defs>
</svg>
