<svg width="24" height="24" viewBox="0 0 24 24" fill="none" xmlns="http://www.w3.org/2000/svg">
<mask id="mask0_62_1799" style="mask-type:alpha" maskUnits="userSpaceOnUse" x="0" y="0" width="24" height="24">
<rect width="24" height="24" fill="#D9D9D9"/>
</mask>
<g mask="url(#mask0_62_1799)">
<path d="M12.0045 15.1538C13.0207 15.1538 13.883 14.7982 14.5913 14.0868C15.2996 13.3755 15.6538 12.5117 15.6538 11.4955C15.6538 10.4793 15.2981 9.61698 14.5868 8.90865C13.8754 8.20032 13.0117 7.84615 11.9954 7.84615C10.9792 7.84615 10.117 8.20182 9.40862 8.91317C8.70028 9.62452 8.34612 10.4883 8.34612 11.5045C8.34612 12.5207 8.70179 13.383 9.41314 14.0913C10.1245 14.7997 10.9883 15.1538 12.0045 15.1538ZM12 14.2C11.25 14.2 10.6125 13.9375 10.0875 13.4125C9.56247 12.8875 9.29997 12.25 9.29997 11.5C9.29997 10.75 9.56247 10.1125 10.0875 9.5875C10.6125 9.0625 11.25 8.8 12 8.8C12.75 8.8 13.3875 9.0625 13.9125 9.5875C14.4375 10.1125 14.7 10.75 14.7 11.5C14.7 12.25 14.4375 12.8875 13.9125 13.4125C13.3875 13.9375 12.75 14.2 12 14.2ZM12 18C10.023 18 8.20991 17.4769 6.56054 16.4308C4.91117 15.3846 3.5788 14.0128 2.56342 12.3154C2.48008 12.1782 2.42079 12.043 2.38554 11.9096C2.35027 11.7763 2.33264 11.6394 2.33264 11.499C2.33264 11.3586 2.35027 11.2221 2.38554 11.0894C2.42079 10.9567 2.48008 10.8218 2.56342 10.6846C3.5788 8.98717 4.91117 7.61537 6.56054 6.56922C8.20991 5.52307 10.023 5 12 5C13.9769 5 15.79 5.52307 17.4394 6.56922C19.0888 7.61537 20.4211 8.98717 21.4365 10.6846C21.5198 10.8218 21.5791 10.9571 21.6144 11.0904C21.6497 11.2238 21.6673 11.3606 21.6673 11.501C21.6673 11.6414 21.6497 11.7779 21.6144 11.9106C21.5791 12.0433 21.5198 12.1782 21.4365 12.3154C20.4211 14.0128 19.0888 15.3846 17.4394 16.4308C15.79 17.4769 13.9769 18 12 18ZM12 17C13.8833 17 15.6125 16.5042 17.1875 15.5125C18.7625 14.5208 19.9666 13.1833 20.8 11.5C19.9666 9.81667 18.7625 8.47917 17.1875 7.4875C15.6125 6.49583 13.8833 6 12 6C10.1166 6 8.38747 6.49583 6.81247 7.4875C5.23747 8.47917 4.0333 9.81667 3.19997 11.5C4.0333 13.1833 5.23747 14.5208 6.81247 15.5125C8.38747 16.5042 10.1166 17 12 17Z" fill="#1F1F1F"/>
</g>
</svg>
