<svg width="24" height="24" viewBox="0 0 24 24" fill="none" xmlns="http://www.w3.org/2000/svg">
<mask id="mask0_62_1590" style="mask-type:alpha" maskUnits="userSpaceOnUse" x="0" y="0" width="24" height="24">
<rect width="24" height="24" fill="#1F1F1F"/>
</mask>
<g mask="url(#mask0_62_1590)">
<path d="M15.4461 12.6461L14.65 11.85C14.8077 10.9538 14.5689 10.19 13.9336 9.55863C13.2984 8.92723 12.5372 8.69101 11.65 8.84998L10.8538 8.05383C11.0346 7.97178 11.2205 7.91664 11.4115 7.88843C11.6025 7.86023 11.7987 7.84613 12 7.84613C13.0192 7.84613 13.883 8.20029 14.5913 8.90863C15.2997 9.61696 15.6538 10.4807 15.6538 11.5C15.6538 11.7013 15.6429 11.8974 15.6211 12.0885C15.5993 12.2795 15.541 12.4654 15.4461 12.6461ZM18.6077 15.7192L17.85 15.05C18.4833 14.5666 19.05 14.0291 19.55 13.4375C20.05 12.8458 20.4666 12.2 20.8 11.5C19.9666 9.81664 18.7625 8.47914 17.1875 7.48748C15.6125 6.49581 13.8833 5.99998 12 5.99998C11.5166 5.99998 11.0458 6.03331 10.5875 6.09998C10.1291 6.16664 9.66665 6.26664 9.19998 6.39998L8.4192 5.6192C8.991 5.39997 9.5753 5.24195 10.1721 5.14515C10.7689 5.04837 11.3782 4.99998 12 4.99998C14.0141 4.99998 15.874 5.51664 17.5798 6.54998C19.2856 7.58331 20.6064 8.98843 21.5423 10.7654C21.609 10.8859 21.6558 11.0041 21.6827 11.1202C21.7096 11.2362 21.7231 11.3628 21.7231 11.5C21.7231 11.6372 21.7106 11.7638 21.6856 11.8798C21.6606 11.9958 21.6147 12.1141 21.5481 12.2346C21.207 12.9231 20.7852 13.5586 20.2827 14.1413C19.7801 14.724 19.2218 15.25 18.6077 15.7192ZM12 18C10.0231 18 8.20575 17.4791 6.54805 16.4375C4.89035 15.3958 3.56022 14.0199 2.55765 12.3096C2.47432 12.1891 2.41503 12.0593 2.37978 11.9202C2.34453 11.7811 2.3269 11.641 2.3269 11.5C2.3269 11.3589 2.34357 11.2198 2.3769 11.0827C2.41024 10.9455 2.46857 10.8147 2.5519 10.6904C2.96215 9.99805 3.41696 9.34133 3.91633 8.72018C4.41568 8.09901 4.99356 7.55125 5.64998 7.0769L3.20958 4.63075C3.116 4.53332 3.06696 4.41761 3.06248 4.28363C3.05798 4.14966 3.10894 4.02947 3.21535 3.92305C3.32177 3.81663 3.43972 3.76343 3.5692 3.76343C3.69869 3.76343 3.81664 3.81663 3.92305 3.92305L20.0769 20.0769C20.1705 20.1705 20.2214 20.2843 20.2298 20.4183C20.2381 20.5522 20.1872 20.6743 20.0769 20.7846C19.9705 20.891 19.8525 20.9442 19.7231 20.9442C19.5936 20.9442 19.4756 20.891 19.3692 20.7846L15.8308 17.2577C15.2346 17.5308 14.6141 17.7227 13.9692 17.8336C13.3243 17.9445 12.6679 18 12 18ZM6.35765 7.7846C5.6692 8.25639 5.05767 8.8051 4.52305 9.43075C3.98844 10.0564 3.54741 10.7461 3.19998 11.5C4.03331 13.1833 5.23748 14.5208 6.81248 15.5125C8.38748 16.5041 10.1166 17 12 17C12.5256 17 13.0461 16.9631 13.5615 16.8894C14.0769 16.8157 14.5782 16.6833 15.0654 16.4923L13.4346 14.85C13.2128 14.9769 12.9833 15.0593 12.7461 15.0971C12.5089 15.1349 12.2602 15.1538 12 15.1538C10.9807 15.1538 10.117 14.7997 9.40863 14.0913C8.7003 13.383 8.34613 12.5192 8.34613 11.5C8.34613 11.2397 8.36825 10.991 8.41248 10.7538C8.45671 10.5166 8.53588 10.2872 8.64998 10.0654L6.35765 7.7846Z" fill="#1F1F1F"/>
</g>
</svg>
